<svg width="675" height="675" viewBox="0 0 675 675" fill="none" xmlns="http://www.w3.org/2000/svg">
<g clip-path="url(#clip0_157_241)">
<rect width="675" height="675" rx="337.5" fill="url(#paint0_linear_157_241)"/>
<path d="M401.438 402.935C400.254 406.88 396.67 409.647 392.524 409.767L270.71 413.282C267.697 413.369 264.818 412.036 262.936 409.682L118.342 228.85C116.46 226.497 115.793 223.397 116.539 220.478C135.473 146.432 201.169 93.8854 277.566 91.6807C280.579 91.5938 283.458 92.9267 285.34 95.2806L429.934 276.112C431.816 278.466 432.484 281.565 431.737 284.484L401.546 402.55L401.438 402.935Z" fill="white" stroke="black" stroke-width="19.1971" stroke-linejoin="round"/>
<path d="M452.34 465.549C451.386 470.016 447.416 473.191 442.849 473.141L335.328 471.967C320.928 471.809 307.359 465.194 298.366 453.946L261.976 408.427C260.179 406.178 259.485 403.241 260.087 400.426C276.331 324.43 343.875 270.405 421.583 271.254C424.463 271.285 427.177 272.609 428.975 274.859L465.372 320.386C474.36 331.629 477.827 346.311 474.819 360.386L452.34 465.549Z" fill="#D9D9D9" stroke="black" stroke-width="19.1971" stroke-linejoin="round"/>
<path d="M465.499 497.773C462.398 500.253 458.09 500.568 454.662 498.566L404.694 469.373C385.377 458.088 383.392 430.935 400.862 416.962C418.333 402.988 444.386 410.889 451.152 432.213L468.653 487.375L468.759 487.73C469.774 491.416 468.503 495.371 465.499 497.773Z" fill="black" stroke="black" stroke-width="19.1971" stroke-linejoin="round"/>
<path d="M-139 511H789" stroke="black" stroke-width="19.1971" stroke-linecap="round"/>
</g>
<rect x="48.5" y="48.5" width="578" height="578" rx="289" stroke="black" stroke-width="97"/>
<defs>
<linearGradient id="paint0_linear_157_241" x1="337.5" y1="0" x2="337.5" y2="675" gradientUnits="userSpaceOnUse">
<stop stop-color="#DBDBDB"/>
<stop offset="1" stop-color="#F6F6F6"/>
</linearGradient>
<clipPath id="clip0_157_241">
<rect width="675" height="675" rx="337.5" fill="white"/>
</clipPath>
</defs>
</svg>
