<svg width="630" height="630" viewBox="0 0 630 630" fill="none" xmlns="http://www.w3.org/2000/svg">
<rect x="15.5" y="15.5" width="599" height="599" rx="299.5" fill="url(#paint0_linear_158_265)" stroke="black" stroke-width="31"/>
<path d="M213.271 429.791C166.205 429.791 136.038 410.996 126.878 386.041C125.298 381.935 124.351 377.512 124.351 373.248C124.351 360.613 133.038 352.242 145.357 352.242C155.149 352.242 161.625 356.032 167.311 366.141C174.734 383.514 192.581 391.411 214.377 391.411C239.963 391.411 257.337 379.092 257.337 362.35C257.337 347.346 246.597 338.817 218.009 332.973L193.845 328.235C148.358 319.232 126.088 297.437 126.088 263.48C126.088 221.783 162.414 194.144 213.113 194.144C254.809 194.144 286.24 211.675 296.348 241.368C297.453 244.527 298.085 247.843 298.085 251.95C298.085 263.322 289.872 271.061 277.711 271.061C266.971 271.061 260.337 266.796 254.967 257.004C247.386 239.788 232.698 232.681 213.113 232.681C189.58 232.681 173.944 243.737 173.944 260.479C173.944 274.535 184.842 283.222 211.85 288.592L235.857 293.488C284.186 303.123 305.034 322.549 305.034 357.138C305.034 401.677 270.13 429.791 213.271 429.791ZM351.905 426C337.374 426 327.74 417.313 327.74 404.046C327.74 397.413 329.793 392.201 334.689 385.567L443.51 238.683V237.577L349.22 237.577C336.427 237.577 327.74 230.154 327.74 217.835C327.74 205.515 336.269 198.092 349.22 198.092L476.204 198.092C491.05 198.092 500.527 206.937 500.527 220.836C500.527 228.101 497.526 232.997 493.261 238.841L385.23 385.251V386.515L484.89 386.515C498 386.515 506.528 393.938 506.528 406.257C506.528 418.577 497.842 426 484.89 426L351.905 426Z" fill="#121212"/>
<defs>
<linearGradient id="paint0_linear_158_265" x1="315" y1="0" x2="315" y2="630" gradientUnits="userSpaceOnUse">
<stop stop-color="#DBDBDB"/>
<stop offset="1" stop-color="#F6F6F6"/>
</linearGradient>
</defs>
</svg>
